<svg xmlns="http://www.w3.org/2000/svg" width='35' height='35' fill="#E5A94A" viewBox="0 0 52 52" id="coding"><path d="M24.433 30.63c-.96-1.46-2.095-2.707-3.308-3.965-.95-.987-4.158-3.282-3.57-4.718.074-.18 1.691-1.06 1.93-1.333 1.386-1.59 2.254-3.304 3.935-4.695 1.241-1.026-.536-2.786-1.767-1.768-1.646 1.361-2.45 3.089-3.862 4.566-1.032 1.078-2.907 1.224-3.311 2.84-.36 1.438.672 2.487 1.564 3.45 2.094 2.261 4.528 4.295 6.23 6.885.88 1.34 3.046.088 2.159-1.261zM30.629 32.162c.694-1.393 3.046-2.815 4.097-4.037 1.123-1.306 2.709-2.641 3.46-4.202.237-.492.229-1.115-.196-1.514-1.174-1.106-1.823-2.558-3.042-3.593-1.997-1.696-3.854-2.255-5.101-4.88-.69-1.453-2.847-.186-2.16 1.261.941 1.979 2.198 3.253 3.972 4.493 1.849 1.293 2.953 2.97 4.564 4.486l-.196-1.514c-.884 1.836-3.007 3.927-4.487 5.326-1.108 1.048-2.37 1.508-3.07 2.912-.715 1.436 1.44 2.704 2.159 1.262zM25.012 41.335l2.083-.091c.674-.03 1.25-.554 1.25-1.25 0-.654-.573-1.28-1.25-1.25l-2.083.09c-.675.03-1.25.554-1.25 1.25 0 .655.572 1.28 1.25 1.25zM47.801 36.014l.185-.745c.388-1.561-2.022-2.228-2.41-.665l-.186.746c-.388 1.561 2.023 2.227 2.411.664z"></path><path d="M47.962 34.35c.24-5.126.412-10.253.477-15.384.037-2.87.99-7.962-.545-10.562-.884-1.496-1.659-1.459-3.108-1.786-3.977-.899-9.596-.289-13.677-.074-4.123.217-8.067-.094-12.19-.056-3.74.035-8.568-.498-12.22.4-1.395.343-2.098.576-2.497 2.15-.911 3.59.458 8.68.448 12.4-.011 4.485.111 9.54-.887 13.947-.487 2.147-3.61 5.34-2.468 7.756.8 1.695 3.3 1.814 4.8 1.99 4.4.514 8.92.403 13.346.471a770.54 770.54 0 0 0 21.677.027c2.15-.027 5.886.616 7.882-.14 4.441-1.686.124-7.262-1.329-10.142-.724-1.437-2.882-.173-2.158 1.261.5.991 1.654 2.604 1.885 3.738.55 2.697-.364 2.29-2.339 2.723-2.959.649-6.837.098-9.853.113a770.544 770.544 0 0 1-19.706-.15c-1.39-.029-10.101.5-10.874-.624-.922-1.338 1.221-4.865 1.547-6.359 1.157-5.297 1.035-11.11.968-16.503-.016-1.26-.05-2.522-.105-3.782-.028-.67-.714-5.159-.37-5.664 1.186-1.74 6.95-.938 8.762-.997 5.537-.181 10.987.082 16.518-.076 2.841-.081 5.695.023 8.537.05.89.008 3.531-.483 4.303.04 1.605 1.091 1.189 3.447 1.187 5.04a443.452 443.452 0 0 1-.511 20.193c-.076 1.608 2.424 1.604 2.5 0z"></path><path d="M5.683 37.505c6.817.345 13.884 1.28 20.703.857 6.832-.424 13.334-1.03 20.214-.397 1.601.148 1.591-2.353 0-2.5-6.868-.632-13.401-.095-20.214.397-6.785.49-13.918-.514-20.703-.857-1.608-.081-1.603 2.419 0 2.5z"></path></svg>