<svg xmlns="http://www.w3.org/2000/svg" viewBox="0 0 24 24" width="25" height="25" id="google-mail"><defs><linearGradient id="a" x1="7.84" x2="18.74" y1="8.29" y2="14.32" gradientUnits="userSpaceOnUse"><stop offset=".01"></stop><stop offset="1" stop-color="#e6e6e6"></stop></linearGradient></defs><g><g><path fill="none" d="M0 0h24v24H0z"></path><path fill="#fff" d="M1 12C1 4 4 1 12 1s11 3 11 11-3 11-11 11S1 20 1 12"></path><path fill="#f1f5f7" d="M5.88 5.88h12.24v12.24H5.88z"></path><path d="m12 13.31-6.12 4.81L5.57 8Z" opacity=".05"></path><path fill="url(#a)" d="m6 8.7 8.45 9.42h3.7L18.43 8l-6.7 3.86Z" opacity=".15"></path><path fill="#f84437" d="M18.63 5.88h-.51L12 10.73 5.88 5.88h-.51a1.54 1.54 0 0 0-1.53 1.53v9.18a1.54 1.54 0 0 0 1.53 1.53h.51V8.59L12 13.31l6.12-4.72v9.53h.51a1.54 1.54 0 0 0 1.53-1.53V7.41a1.54 1.54 0 0 0-1.53-1.53Z"></path></g></g></svg>